<mxfile host="app.diagrams.net" modified="2022-09-02T11:02:25.205Z" agent="5.0 (Macintosh; Intel Mac OS X 10_15_7) AppleWebKit/537.36 (KHTML, like Gecko) Chrome/104.0.0.0 Safari/537.36" etag="U2fWYpCy9USw6SVm6v8J" version="20.2.8" type="github">
  <diagram id="44_I7HKefqhwKFOfMV9C" name="Page-2">
    <mxGraphModel dx="1186" dy="621" grid="1" gridSize="10" guides="1" tooltips="1" connect="1" arrows="1" fold="1" page="1" pageScale="1" pageWidth="850" pageHeight="1100" math="0" shadow="0">
      <root>
        <mxCell id="0" />
        <mxCell id="1" parent="0" />
        <mxCell id="zbRpHHdLbyTRpzOCQNim-7" style="edgeStyle=orthogonalEdgeStyle;rounded=0;orthogonalLoop=1;jettySize=auto;html=1;exitX=1;exitY=0.5;exitDx=0;exitDy=0;entryX=0;entryY=0.5;entryDx=0;entryDy=0;" parent="1" source="ENQCwKnhcIKwDzOBuOjb-1" target="Mr0UB_C8Mv64-vhFzspC-1" edge="1">
          <mxGeometry relative="1" as="geometry" />
        </mxCell>
        <mxCell id="zbRpHHdLbyTRpzOCQNim-8" style="edgeStyle=orthogonalEdgeStyle;rounded=0;orthogonalLoop=1;jettySize=auto;html=1;exitX=1;exitY=0.5;exitDx=0;exitDy=0;entryX=0;entryY=0.5;entryDx=0;entryDy=0;" parent="1" source="ENQCwKnhcIKwDzOBuOjb-1" target="Mr0UB_C8Mv64-vhFzspC-2" edge="1">
          <mxGeometry relative="1" as="geometry" />
        </mxCell>
        <mxCell id="zbRpHHdLbyTRpzOCQNim-12" style="edgeStyle=orthogonalEdgeStyle;rounded=0;orthogonalLoop=1;jettySize=auto;html=1;exitX=0.5;exitY=1;exitDx=0;exitDy=0;entryX=0.5;entryY=0;entryDx=0;entryDy=0;" parent="1" source="ENQCwKnhcIKwDzOBuOjb-1" target="Mr0UB_C8Mv64-vhFzspC-11" edge="1">
          <mxGeometry relative="1" as="geometry">
            <mxPoint x="420" y="340" as="targetPoint" />
          </mxGeometry>
        </mxCell>
        <mxCell id="Mr0UB_C8Mv64-vhFzspC-1" value="100円の財布と&#xa;1000円の財布&#xa;どっちが価値があると思う？" style="rounded=1;fillColor=#60BBFF;gradientColor=none;strokeColor=none;fontColor=black;fontStyle=1;fontFamily=Tahoma;fontSize=14" parent="1" vertex="1">
          <mxGeometry x="320" y="160" width="200" height="80" as="geometry" />
        </mxCell>
        <mxCell id="Mr0UB_C8Mv64-vhFzspC-2" value="石ころを100円で売る&#xa;このプロセスに価値がある" style="rounded=1;fillColor=#60BBFF;gradientColor=none;strokeColor=none;fontColor=black;fontStyle=1;fontFamily=Tahoma;fontSize=14" parent="1" vertex="1">
          <mxGeometry x="320" y="40" width="200" height="80" as="geometry" />
        </mxCell>
        <mxCell id="Mr0UB_C8Mv64-vhFzspC-3" value="" style="rounded=1;fillColor=#60BBFF;gradientColor=none;strokeColor=none;fontColor=black;fontStyle=1;fontFamily=Tahoma;fontSize=14" parent="1" vertex="1">
          <mxGeometry x="1480" y="40" width="200" height="80" as="geometry" />
        </mxCell>
        <mxCell id="Mr0UB_C8Mv64-vhFzspC-4" value="" style="rounded=1;fillColor=#23445D;gradientColor=none;strokeColor=none;fontColor=#FFFFFF;fontStyle=1;fontFamily=Tahoma;fontSize=14" parent="1" vertex="1">
          <mxGeometry x="1480" y="160" width="200" height="80" as="geometry" />
        </mxCell>
        <mxCell id="Mr0UB_C8Mv64-vhFzspC-5" value="コードは書かないほうがいい" style="rounded=1;fillColor=#60BBFF;gradientColor=none;strokeColor=none;fontColor=black;fontStyle=1;fontFamily=Tahoma;fontSize=14" parent="1" vertex="1">
          <mxGeometry x="600" y="280" width="200" height="80" as="geometry" />
        </mxCell>
        <mxCell id="Mr0UB_C8Mv64-vhFzspC-6" value="車輪の再発明" style="rounded=1;fillColor=#23445D;gradientColor=none;strokeColor=none;fontColor=#FFFFFF;fontStyle=1;fontFamily=Tahoma;fontSize=14" parent="1" vertex="1">
          <mxGeometry x="320" y="500" width="200" height="80" as="geometry" />
        </mxCell>
        <mxCell id="zbRpHHdLbyTRpzOCQNim-9" style="edgeStyle=orthogonalEdgeStyle;rounded=0;orthogonalLoop=1;jettySize=auto;html=1;exitX=1;exitY=0.5;exitDx=0;exitDy=0;entryX=0;entryY=0.5;entryDx=0;entryDy=0;" parent="1" source="Mr0UB_C8Mv64-vhFzspC-11" target="Mr0UB_C8Mv64-vhFzspC-5" edge="1">
          <mxGeometry relative="1" as="geometry">
            <mxPoint x="520" y="380" as="sourcePoint" />
          </mxGeometry>
        </mxCell>
        <mxCell id="zbRpHHdLbyTRpzOCQNim-10" style="edgeStyle=orthogonalEdgeStyle;rounded=0;orthogonalLoop=1;jettySize=auto;html=1;exitX=1;exitY=0.5;exitDx=0;exitDy=0;entryX=0;entryY=0.5;entryDx=0;entryDy=0;" parent="1" source="Mr0UB_C8Mv64-vhFzspC-11" target="Mr0UB_C8Mv64-vhFzspC-9" edge="1">
          <mxGeometry relative="1" as="geometry">
            <mxPoint x="520" y="380" as="sourcePoint" />
          </mxGeometry>
        </mxCell>
        <mxCell id="zbRpHHdLbyTRpzOCQNim-14" style="edgeStyle=orthogonalEdgeStyle;rounded=0;orthogonalLoop=1;jettySize=auto;html=1;exitX=0.5;exitY=1;exitDx=0;exitDy=0;entryX=0.5;entryY=0;entryDx=0;entryDy=0;" parent="1" source="Mr0UB_C8Mv64-vhFzspC-11" target="Mr0UB_C8Mv64-vhFzspC-6" edge="1">
          <mxGeometry relative="1" as="geometry">
            <mxPoint x="420" y="420" as="sourcePoint" />
          </mxGeometry>
        </mxCell>
        <mxCell id="Mr0UB_C8Mv64-vhFzspC-9" value="「その機能はいらない」" style="rounded=1;fillColor=#60BBFF;gradientColor=none;strokeColor=none;fontColor=black;fontStyle=1;fontFamily=Tahoma;fontSize=14" parent="1" vertex="1">
          <mxGeometry x="600" y="400" width="200" height="80" as="geometry" />
        </mxCell>
        <mxCell id="Mr0UB_C8Mv64-vhFzspC-11" value="Agile" style="rounded=1;fillColor=#23445D;gradientColor=none;strokeColor=none;fontColor=#FFFFFF;fontStyle=1;fontFamily=Tahoma;fontSize=14" parent="1" vertex="1">
          <mxGeometry x="320" y="340" width="200" height="80" as="geometry" />
        </mxCell>
        <mxCell id="zbRpHHdLbyTRpzOCQNim-3" value="" style="edgeStyle=elbowEdgeStyle;elbow=vertical;strokeWidth=2;rounded=0;exitX=0.5;exitY=1;exitDx=0;exitDy=0;entryX=0.5;entryY=0;entryDx=0;entryDy=0;" parent="1" edge="1">
          <mxGeometry x="640" y="500" width="100" height="100" as="geometry">
            <mxPoint x="1520" y="280" as="sourcePoint" />
            <mxPoint x="1640" y="360" as="targetPoint" />
          </mxGeometry>
        </mxCell>
        <mxCell id="zbRpHHdLbyTRpzOCQNim-11" value="わからない" style="rounded=1;fillColor=#23445D;gradientColor=none;strokeColor=none;fontColor=#FFFFFF;fontStyle=1;fontFamily=Tahoma;fontSize=14" parent="1" vertex="1">
          <mxGeometry x="40" y="500" width="200" height="80" as="geometry" />
        </mxCell>
        <mxCell id="zbRpHHdLbyTRpzOCQNim-17" style="edgeStyle=orthogonalEdgeStyle;rounded=0;orthogonalLoop=1;jettySize=auto;html=1;exitX=0.5;exitY=1;exitDx=0;exitDy=0;entryX=0.5;entryY=0;entryDx=0;entryDy=0;" parent="1" source="zbRpHHdLbyTRpzOCQNim-15" target="zbRpHHdLbyTRpzOCQNim-11" edge="1">
          <mxGeometry relative="1" as="geometry" />
        </mxCell>
        <mxCell id="zbRpHHdLbyTRpzOCQNim-19" style="edgeStyle=orthogonalEdgeStyle;rounded=0;orthogonalLoop=1;jettySize=auto;html=1;exitX=1;exitY=0.5;exitDx=0;exitDy=0;entryX=0;entryY=0.5;entryDx=0;entryDy=0;" parent="1" source="zbRpHHdLbyTRpzOCQNim-15" target="Mr0UB_C8Mv64-vhFzspC-11" edge="1">
          <mxGeometry relative="1" as="geometry" />
        </mxCell>
        <mxCell id="zbRpHHdLbyTRpzOCQNim-15" value="The Zen Programmer" style="rounded=1;fillColor=#23445D;gradientColor=none;strokeColor=none;fontColor=#FFFFFF;fontStyle=1;fontFamily=Tahoma;fontSize=14" parent="1" vertex="1">
          <mxGeometry x="40" y="340" width="200" height="80" as="geometry" />
        </mxCell>
        <mxCell id="zbRpHHdLbyTRpzOCQNim-16" style="edgeStyle=orthogonalEdgeStyle;rounded=0;orthogonalLoop=1;jettySize=auto;html=1;exitX=0.5;exitY=1;exitDx=0;exitDy=0;entryX=0.5;entryY=0;entryDx=0;entryDy=0;" parent="1" source="ENQCwKnhcIKwDzOBuOjb-1" target="zbRpHHdLbyTRpzOCQNim-15" edge="1">
          <mxGeometry relative="1" as="geometry">
            <mxPoint x="150" y="190" as="sourcePoint" />
            <mxPoint x="430" y="350" as="targetPoint" />
          </mxGeometry>
        </mxCell>
        <mxCell id="ENQCwKnhcIKwDzOBuOjb-1" value="交換可能性&#xa;最強" style="rounded=1;fillColor=#23445D;gradientColor=none;strokeColor=none;fontColor=#FFFFFF;fontStyle=1;fontFamily=Tahoma;fontSize=14;shadow=1;" parent="1" vertex="1">
          <mxGeometry x="40" y="100" width="200" height="80" as="geometry" />
        </mxCell>
      </root>
    </mxGraphModel>
  </diagram>
</mxfile>
